# xmcd
#
# Track frame offsets: 
#        150
#        20685
#        39834
#        57282
#        74371
#        98288
#        156258
#        197085
#        235908
#        255288
#        271170
#        285156
#
# Disc length: 4220 seconds
#
# Revision: 2
# Processed by: cddbd v1.4PL0 Copyright (c) Steve Scherf et al.
# Submitted via: ExactAudioCopy v0.95a4
#
DISCID=92107a0c
DTITLE=Allman Brothers Band - 1971.08.26 - A&R Studios, New York
DYEAR=1971
DGENRE=Blues
TTITLE0=Statesboro Blues
TTITLE1=Trouble No More
TTITLE2=Don't Keep Me Wonderin'
TTITLE3=Done Somebody Wrong
TTITLE4=One Way Out
TTITLE5=In Memory of Elizabeth Reed
TTITLE6=Stormy Monday
TTITLE7=You Don't Love Me (In memory of King Curtis)
TTITLE8=Soul Serenade
TTITLE9=Jam
TTITLE10=Mountain Jam
TTITLE11=intro's (Hot 'Lanta)
EXTD=
EXTT0=
EXTT1=
EXTT2=
EXTT3=
EXTT4=
EXTT5=
EXTT6=
EXTT7=
EXTT8=
EXTT9=
EXTT10=
EXTT11=
PLAYORDER=
